# xmcd
#
# Track frame offsets:
#	150
#	11120
#	20580
#	31947
#	42912
#	55495
#	66375
#	78150
#	91466
#	107945
#	121333
#
# Disc length: 1765 seconds
#
# Revision: 2
# Processed by: cddbd v1.4PL0 Copyright (c) Steve Scherf et al.
# Submitted via: EasyCDDAExtractor 4.6.9.1
#
DISCID=9106e30b
DTITLE=Charley Pride - Best of Charley Pride
DYEAR=1996
DGENRE=Country
TTITLE0=Does My Ring Hurt Your Finger
TTITLE1=Kiss an Angel Goodmorning
TTITLE2=I'm Just Me
TTITLE3=Mississippi Cotton Picking Delta Town
TTITLE4=I Don't Think She's In Love Anymore
TTITLE5=Is Anybody Goin' To San Antone
TTITLE6=She's Just an Old Love Turned Memory
TTITLE7=Mountain of Love
TTITLE8=Roll On Mississippi
TTITLE9=Amazing Love
TTITLE10=Missin' You
EXTD=
EXTT0=
EXTT1=
EXTT2=
EXTT3=
EXTT4=
EXTT5=
EXTT6=
EXTT7=
EXTT8=
EXTT9=
EXTT10=
PLAYORDER=
